<?xml version="1.0" standalone="no"?>
<!DOCTYPE svg PUBLIC "-//W3C//DTD SVG 20010904//EN"
 "http://www.w3.org/TR/2001/REC-SVG-20010904/DTD/svg10.dtd">
<svg version="1.0" xmlns="http://www.w3.org/2000/svg"
 width="200.000000pt" height="200.000000pt" viewBox="0 0 200.000000 200.000000"
 preserveAspectRatio="xMidYMid meet">
<metadata>
Created by potrace 1.10, written by Peter Selinger 2001-2011
</metadata>
<g transform="translate(0.000000,200.000000) scale(0.100000,-0.100000)"
fill="#000000" stroke="none">
<path d="M806 1904 c-20 -20 -21 -11 18 -199 30 -145 32 -161 17 -172 -14 -10
-27 -1 -90 62 -40 41 -79 75 -86 75 -14 0 -45 -32 -45 -46 0 -5 33 -43 74 -83
60 -60 72 -77 64 -90 -9 -15 -26 -13 -184 19 -130 26 -176 32 -185 23 -17 -17
-14 -382 4 -400 11 -11 39 -8 183 22 152 31 170 33 181 19 10 -13 1 -26 -53
-77 -78 -72 -89 -90 -74 -117 19 -36 51 -23 125 50 61 60 73 68 87 58 14 -12
13 -28 -19 -181 -39 -186 -37 -197 23 -197 l34 0 0 -170 0 -170 -60 0 c-100 0
-139 -31 -150 -119 l-5 -45 -62 3 c-34 1 -71 -3 -82 -9 -27 -14 -28 -56 -2
-70 27 -14 935 -14 962 0 26 14 25 56 -2 70 -11 6 -48 10 -82 9 l-62 -3 -5 45
c-11 88 -50 119 -150 119 l-60 0 0 170 0 170 34 0 c60 0 61 10 23 200 -32 158
-33 171 -17 180 13 7 31 -5 86 -61 72 -73 104 -86 124 -49 15 27 4 45 -74 117
-54 51 -63 64 -53 77 11 14 29 12 182 -20 164 -34 171 -34 185 -16 12 15 14
50 12 205 -3 183 -3 187 -25 192 -12 3 -95 -9 -183 -27 -143 -30 -163 -32
-172 -18 -8 12 6 32 65 93 72 74 75 78 60 100 -26 39 -45 32 -120 -42 -52 -53
-75 -70 -89 -65 -12 3 -17 12 -14 22 7 24 66 311 66 322 0 5 -7 16 -16 24 -13
13 -45 16 -194 16 -149 0 -181 -3 -194 -16z m310 -81 c-3 -7 -15 -64 -28 -128
l-22 -115 -66 0 -66 0 -22 115 c-13 64 -25 121 -28 128 -3 9 25 12 116 12 91
0 119 -3 116 -12z m-198 -265 c17 -17 15 -23 -13 -36 -35 -16 -35 -16 -22 18
13 33 17 36 35 18z m196 -19 c15 -29 14 -30 -7 -23 -34 10 -42 21 -27 39 16
20 16 20 34 -16z m-291 -48 c17 -6 17 -8 -2 -25 -12 -11 -21 -14 -21 -8 0 6
-3 17 -6 26 -7 17 0 19 29 7z m264 -12 c153 -74 161 -294 13 -369 -112 -57
-236 -17 -289 93 -84 173 103 360 276 276z m119 5 c-3 -9 -6 -23 -6 -31 0 -11
-6 -8 -19 8 -18 22 -18 25 -3 31 27 11 35 9 28 -8z m62 -90 c6 -3 -11 -34 -19
-34 -8 0 -39 52 -39 65 0 3 12 -2 28 -12 15 -9 28 -18 30 -19z m-498 -8 c-5
-15 -16 -26 -23 -23 -21 7 -18 32 5 43 30 13 31 12 18 -20z m-168 -7 l113 -22
-2 -66 -1 -65 -126 -26 -126 -26 0 119 c0 101 2 118 15 113 8 -3 65 -15 127
-27z m938 -87 l0 -118 -126 26 -126 26 -1 66 -2 66 120 24 c66 14 123 26 128
26 4 1 7 -51 7 -116z m-290 -112 c-26 -20 -45 -26 -36 -11 3 4 10 21 16 36 10
27 12 28 28 11 16 -16 16 -18 -8 -36z m-479 11 c8 -20 6 -22 -14 -15 -29 9
-31 10 -23 29 8 22 27 15 37 -14z m59 -91 c0 -4 -9 -10 -21 -13 -15 -4 -19 -2
-15 10 3 8 6 19 6 25 0 6 6 6 15 -2 8 -7 15 -16 15 -20z m370 21 c0 -5 2 -16
5 -24 5 -10 -1 -13 -24 -9 -28 4 -28 5 -13 23 18 20 32 25 32 10z m-286 -64
c16 -12 16 -14 2 -26 -19 -16 -21 -14 -30 17 -8 25 2 28 28 9z m203 -12 c-13
-28 -16 -29 -37 -15 -13 9 -12 12 4 25 32 24 46 20 33 -10z m-25 -167 l25
-128 -117 0 -117 0 25 128 25 127 67 0 67 0 25 -127z m-207 -158 c3 -6 20 -10
36 -10 33 0 35 -16 6 -34 -12 -8 -22 -5 -40 12 -13 12 -29 22 -35 22 -7 0 -12
9 -12 20 0 17 3 19 19 10 11 -5 23 -15 26 -20z m244 -20 c-38 -32 -49 -36 -67
-18 -19 19 -14 28 14 28 14 0 38 9 52 21 40 31 41 3 1 -31z m-89 -200 l0 -170
-40 0 -40 0 0 170 0 170 40 0 40 0 0 -170z m-90 -202 c0 -4 -13 -8 -30 -8 -31
0 -39 17 -18 38 9 9 16 8 30 -5 10 -9 18 -20 18 -25z m160 6 c0 -9 -11 -14
-30 -14 -34 0 -37 6 -13 32 12 14 19 15 30 7 7 -6 13 -18 13 -25z m128 -66 c7
-7 12 -26 12 -43 l0 -30 -250 0 -250 0 0 31 c0 16 5 35 12 42 17 17 459 17
476 0z m-508 -88 c10 -18 8 -20 -20 -20 -32 0 -38 8 -18 28 17 17 26 15 38 -8z
m578 8 c20 -20 14 -28 -18 -28 -28 0 -30 2 -20 20 12 23 21 25 38 8z"/>
<path d="M934 1441 c-163 -74 -113 -311 66 -311 140 0 215 155 128 265 -24 31
-91 65 -128 65 -14 0 -43 -9 -66 -19z m124 -94 c32 -30 31 -89 -4 -116 -56
-44 -134 -11 -134 57 1 82 77 114 138 59z"/>
</g>
</svg>
